<svg width="34" height="34" viewBox="0 0 34 34" fill="none" xmlns="http://www.w3.org/2000/svg">
<path d="M38.0182 0H-3.94087C-4.87975 0 -5.64087 0.761116 -5.64087 1.7V32.3C-5.64087 33.2389 -4.87975 34 -3.94087 34H38.0182C38.9571 34 39.7182 33.2389 39.7182 32.3V1.7C39.7182 0.761116 38.9571 0 38.0182 0Z" fill="black"/>
<mask id="mask0_5_1962" style="mask-type:alpha" maskUnits="userSpaceOnUse" x="-6" y="0" width="46" height="34">
<path d="M38.0182 0H-3.94087C-4.87975 0 -5.64087 0.761116 -5.64087 1.7V32.3C-5.64087 33.2389 -4.87975 34 -3.94087 34H38.0182C38.9571 34 39.7182 33.2389 39.7182 32.3V1.7C39.7182 0.761116 38.9571 0 38.0182 0Z" fill="white"/>
</mask>
<g mask="url(#mask0_5_1962)">
<mask id="mask1_5_1962" style="mask-type:alpha" maskUnits="userSpaceOnUse" x="-6" y="0" width="46" height="34">
<path d="M39.7182 0H-5.64087V34H39.7182V0Z" fill="white"/>
</mask>
<g mask="url(#mask1_5_1962)">
<path d="M39.7182 0H-5.64087V34H39.7182V0Z" fill="#2E42A5"/>
<mask id="mask2_5_1962" style="mask-type:alpha" maskUnits="userSpaceOnUse" x="-6" y="0" width="46" height="34">
<path d="M39.7182 0H-5.64087V34H39.7182V0Z" fill="white"/>
</mask>
<g mask="url(#mask2_5_1962)">
<path d="M19.8736 0H-5.64087V19.8333H19.8736V0Z" fill="#2B409A"/>
<mask id="mask3_5_1962" style="mask-type:alpha" maskUnits="userSpaceOnUse" x="-6" y="0" width="26" height="20">
<path d="M19.8736 0H-5.64087V19.8333H19.8736V0Z" fill="white"/>
</mask>
<g mask="url(#mask3_5_1962)">
<path d="M-8.48193 18.4164L-2.8674 20.8774L20.0009 2.67572L22.9625 -0.981455L16.9585 -1.804L7.6311 6.03964L0.123457 11.3244L-8.48193 18.4164Z" fill="#F7FCFF"/>
<path d="M-7.71338 20.1407L-4.85303 21.5688L21.8989 -1.32125H17.8827L-7.71338 20.1407Z" fill="#F50100"/>
<path d="M22.7146 18.4164L17.1001 20.8774L-5.76828 2.67572L-8.72982 -0.981455L-2.72588 -1.804L6.60157 6.03964L14.1092 11.3244L22.7146 18.4164Z" fill="#F7FCFF"/>
<path d="M22.5229 19.6539L19.6626 21.082L8.27134 11.2816L4.89408 10.1866L-9.01486 -0.968975H-4.9986L8.90252 9.92183L12.595 11.2348L22.5229 19.6539Z" fill="#F50100"/>
<path d="M9.57496 -1.0625L9.57423 7.4375H20.9366V12.3958H9.57423L9.57496 20.8958H4.61381L4.61308 12.3958H-6.7041V7.4375H4.61308L4.61381 -1.0625H9.57496Z" fill="#F50100" stroke="#F7FCFF" stroke-width="1.5"/>
</g>
</g>
<mask id="mask4_5_1962" style="mask-type:alpha" maskUnits="userSpaceOnUse" x="-6" y="0" width="46" height="34">
<path d="M39.7182 0H-5.64087V34H39.7182V0Z" fill="white"/>
</mask>
<g mask="url(#mask4_5_1962)">
<path d="M7.11626 29.042L5.2712 30.7461L5.45392 28.2419L2.97046 27.8627L5.04336 26.4441L3.79159 24.2672L6.19373 25.0024L7.11626 22.667L8.03878 25.0024L10.4409 24.2672L9.18916 26.4441L11.2621 27.8627L8.77859 28.2419L8.96131 30.7461L7.11626 29.042Z" fill="#F7FCFF"/>
<path d="M25.5434 18.417L24.3134 19.5531L24.4352 17.8836L22.7795 17.6308L24.1615 16.6851L23.327 15.2338L24.9284 15.724L25.5434 14.167L26.1584 15.724L27.7599 15.2338L26.9253 16.6851L28.3073 17.6308L26.6516 17.8836L26.7734 19.5531L25.5434 18.417Z" fill="#F7FCFF"/>
<path d="M28.3784 7.0835L27.1483 8.21957L27.2701 6.55011L25.6145 6.29731L26.9964 5.35159L26.1619 3.90027L27.7633 4.39046L28.3784 2.8335L28.9934 4.39046L30.5948 3.90027L29.7603 5.35159L31.1422 6.29731L29.4866 6.55011L29.6084 8.21957L28.3784 7.0835Z" fill="#F7FCFF"/>
<path d="M35.4658 12.75L34.2357 13.8861L34.3575 12.2166L32.7019 11.9638L34.0838 11.0181L33.2493 9.56678L34.8508 10.057L35.4658 8.5L36.0808 10.057L37.6822 9.56678L36.8477 11.0181L38.2296 11.9638L36.574 12.2166L36.6958 13.8861L35.4658 12.75Z" fill="#F7FCFF"/>
<path d="M29.7958 31.167L28.5658 32.3031L28.6876 30.6336L27.032 30.3808L28.4139 29.4351L27.5794 27.9838L29.1808 28.474L29.7958 26.917L30.4109 28.474L32.0123 27.9838L31.1778 29.4351L32.5597 30.3808L30.9041 30.6336L31.0259 32.3031L29.7958 31.167Z" fill="#F7FCFF"/>
<path d="M34.757 20.1875L33.5073 20.8442L33.7459 19.4533L32.7349 18.4683L34.1321 18.2654L34.757 17L35.3819 18.2654L36.7792 18.4683L35.7681 19.4533L36.0068 20.8442L34.757 20.1875Z" fill="#F7FCFF"/>
</g>
</g>
</g>
<mask id="mask5_5_1962" style="mask-type:alpha" maskUnits="userSpaceOnUse" x="-6" y="0" width="46" height="34">
<path d="M38.0182 0H-3.94087C-4.87975 0 -5.64087 0.761116 -5.64087 1.7V32.3C-5.64087 33.2389 -4.87975 34 -3.94087 34H38.0182C38.9571 34 39.7182 33.2389 39.7182 32.3V1.7C39.7182 0.761116 38.9571 0 38.0182 0Z" fill="white"/>
</mask>
<g mask="url(#mask5_5_1962)">
<path d="M37.3095 0.708496H-3.23213C-4.17101 0.708496 -4.93213 1.46961 -4.93213 2.4085V31.5918C-4.93213 32.5307 -4.17101 33.2918 -3.23213 33.2918H37.3095C38.2484 33.2918 39.0095 32.5307 39.0095 31.5918V2.4085C39.0095 1.46961 38.2484 0.708496 37.3095 0.708496Z" stroke="black" stroke-opacity="0.1"/>
</g>
</svg>
